<svg width="15" height="18" viewBox="0 0 15 18" fill="none" xmlns="http://www.w3.org/2000/svg">
<g id="Group 21077">
<path id="Vector" d="M6.44531 9.36931C6.75346 9.32097 7.05475 9.24846 7.3629 9.22429C8.48591 9.11955 9.60207 9.15178 10.6977 9.50628C10.8483 9.55462 10.9921 9.62713 11.1291 9.69965C11.1702 9.71576 11.1907 9.78021 11.2113 9.85273C9.64316 9.33709 8.04081 9.52239 6.45216 9.44988V9.36126H6.44531V9.36931Z" fill="#314D3C"/>
<path id="Vector_2" d="M6.1864 2.25126C6.45313 1.41537 7.09186 0.981464 8.01838 1.00061C8.78345 1.01337 9.40113 1.56851 9.6468 2.46822C9.82929 2.52564 10.0118 2.58307 10.2013 2.64688C11.6964 3.11269 12.4685 4.08897 12.6159 5.49276C12.665 6.00962 12.686 6.53923 12.658 7.06247C12.5808 8.67684 13.0019 10.1636 13.9003 11.5546C14.2583 12.1161 14.5601 12.7096 14.6093 13.3668C14.6373 13.6603 14.5812 13.9666 14.5672 14.2601C14.5672 14.292 14.5531 14.3176 14.5391 14.3431C14.504 14.7642 14.5391 14.7387 13.9986 14.8472C13.0932 15.0322 12.1737 15.1024 11.2401 15.0896C11.0296 15.0896 10.819 15.045 10.5803 15.0195C10.5452 15.1535 10.5101 15.2938 10.468 15.4215C10.1171 16.436 9.42219 17.1188 8.24299 17.3038C7.4007 17.4378 6.63562 17.1953 5.98285 16.7168C5.35114 16.2574 4.88788 15.6958 4.67029 14.9493C4.20703 14.9493 3.75781 14.9812 3.30859 14.9493C2.76813 14.911 2.23468 14.8089 1.70123 14.7323C1.31518 14.6749 1.15374 14.4452 1.08355 14.1197C0.901057 13.2456 1.02038 12.4033 1.41345 11.5993C1.62402 11.1654 1.88372 10.757 2.12237 10.3359C2.46631 9.73607 2.72601 9.11712 2.83832 8.4535C2.92254 7.91113 2.9436 7.36237 2.90851 6.80723C2.85937 5.99048 2.85937 5.18648 3.11206 4.39525C3.28052 3.86563 3.61743 3.45726 4.08771 3.13183C4.67731 2.72345 5.34412 2.43631 6.0741 2.30231C6.10919 2.30231 6.13727 2.27679 6.17938 2.26403H6.17237L6.1864 2.25126ZM1.36431 14.426C2.8313 14.1963 4.24915 14.1006 5.67401 14.0878C7.26734 14.0815 8.8747 14.1134 10.468 14.1453C11.6823 14.1708 12.8826 14.3176 14.0688 14.5728C14.132 14.5856 14.1881 14.5792 14.2373 14.5856C14.2022 14.2729 14.153 13.9857 14.153 13.6986C14.153 13.303 14.0758 12.9201 13.9144 12.5692C13.7249 12.1608 13.5283 11.7461 13.2897 11.3568C12.4193 9.96578 12.1035 8.47265 12.1877 6.89018C12.2158 6.37333 12.2228 5.8501 12.1877 5.33324C12.1245 4.53563 11.7666 3.85287 11.0717 3.35516C10.6365 3.0425 10.1311 2.83831 9.59766 2.69793C9.53449 2.68517 9.47132 2.63412 9.42921 2.58945C9.38709 2.53202 9.36604 2.46822 9.33796 2.40441C9.17652 2.07898 8.9098 1.83012 8.59394 1.62594C8.14472 1.3388 7.48493 1.55575 7.141 1.86841C6.90937 2.07898 6.67774 2.29593 6.43909 2.49374C6.3689 2.55117 6.27765 2.59583 6.19342 2.61498C5.7442 2.71069 5.3371 2.9085 4.93701 3.11269C4.17194 3.48278 3.6806 4.05068 3.55426 4.84829C3.44897 5.46724 3.47705 6.08619 3.52618 6.69876C3.58935 7.47723 3.54022 8.24294 3.33667 9.00226C3.14013 9.71692 2.78216 10.3614 2.37506 10.9867C2.01709 11.5291 1.70825 12.097 1.617 12.7287C1.55383 13.1499 1.5047 13.571 1.44854 13.9921C1.4345 14.1261 1.42047 14.2537 1.39941 14.4197H1.36431V14.426ZM10.468 14.4707C8.59394 14.375 6.71985 14.3303 4.85278 14.4069C4.8598 14.7004 4.88086 14.9748 5.01422 15.2364C5.42133 15.9894 6.039 16.57 6.88129 16.9146C7.77973 17.2783 8.76942 17.1571 9.49238 16.4807C10.0469 15.9702 10.2926 15.3321 10.4821 14.6557C10.4961 14.5983 10.475 14.5473 10.468 14.4707ZM13.7178 14.7259C12.679 14.6621 11.6472 14.5345 10.5803 14.4962C10.6084 14.6621 10.6224 14.7834 10.6435 14.9237C11.6753 14.8663 12.7001 14.8982 13.7178 14.7196H13.7249L13.7178 14.7259ZM4.60712 14.4005C3.73675 14.4579 2.90149 14.5154 2.06622 14.5728C2.92254 14.7897 3.77887 14.7897 4.67029 14.7451C4.65625 14.6366 4.63519 14.5409 4.62116 14.4069H4.61414L4.60712 14.4005Z" fill="#314D3C" stroke="#314D3C" stroke-width="0.5" stroke-linecap="round" stroke-linejoin="round"/>
</g>
</svg>
