<svg width="18" height="18" viewBox="0 0 18 18" fill="none" xmlns="http://www.w3.org/2000/svg">
<path id="Vector" d="M13.0761 17C13.0761 16.9417 13.0761 16.9067 13.0761 16.8725C13.0761 15.8915 13.0761 14.9097 13.0722 13.9287C13.0722 13.8262 13.0979 13.772 13.1868 13.7228C14.3382 13.0836 15.3072 12.2193 16.0329 11.0591C16.4952 10.3198 16.807 9.51389 16.9349 8.63293C17.1228 7.34107 16.9021 6.12589 16.2988 4.99156C15.7242 3.91223 14.9065 3.08794 13.9282 2.43618C12.9592 1.79108 11.9044 1.38936 10.7842 1.17099C10.0359 1.02514 9.28205 0.973462 8.52354 1.01263C6.74617 1.10598 5.10132 1.64023 3.63889 2.74622C2.7276 3.43549 1.99482 4.29479 1.50916 5.37995C1.12017 6.25008 0.950225 7.16771 1.01259 8.12869C1.0921 9.34137 1.50526 10.4224 2.18581 11.3883C3.09009 12.671 4.27422 13.5528 5.66104 14.1387C6.39693 14.4496 7.16011 14.6405 7.94512 14.7405C8.48924 14.8097 9.03415 14.8313 9.57983 14.788C9.83786 14.768 10.0943 14.7272 10.3516 14.7013C10.3882 14.698 10.4358 14.7122 10.4646 14.7363C11.2177 15.3914 11.9684 16.0499 12.7206 16.7058C12.8306 16.8016 12.9451 16.8925 13.0761 17ZM12.6637 16.3274C12.4782 16.1649 12.4205 16.0199 12.2552 15.8757C11.715 15.4039 11.174 14.933 10.6338 14.4596C10.5582 14.3929 10.4755 14.3563 10.3781 14.3654C10.244 14.3788 10.1091 14.3938 9.97584 14.4138C9.33116 14.5121 8.68491 14.5013 8.03944 14.4246C7.28874 14.3346 6.55518 14.1571 5.84891 13.867C4.49717 13.3111 3.33954 12.4668 2.45398 11.2275C1.79448 10.3048 1.39301 9.27052 1.31583 8.10702C1.25659 7.20772 1.41484 6.34842 1.77733 5.5333C2.25519 4.45898 2.98719 3.62052 3.89458 2.95042C5.20345 1.98445 6.66666 1.48771 8.24369 1.35602C9.01778 1.29184 9.78953 1.32518 10.5574 1.45937C11.5529 1.63356 12.5016 1.95611 13.3872 2.47618C14.4598 3.10628 15.3602 3.93723 15.9901 5.07407C16.5747 6.12922 16.8016 7.26856 16.6457 8.48624C16.5389 9.32053 16.2575 10.0881 15.8295 10.7932C15.1185 11.9668 14.1503 12.8319 12.9927 13.4611C12.8298 13.5495 12.7651 13.6678 12.7658 13.8587C12.7713 14.638 12.769 15.4181 12.7697 16.1974C12.7697 16.2324 12.7697 16.2674 12.7697 16.3274H12.6637Z" stroke="#314D3C" stroke-width="0.8" stroke-miterlimit="10"/>
</svg>
