<svg width="12" height="16" viewBox="0 0 12 16" fill="none" xmlns="http://www.w3.org/2000/svg">
<path id="Vector" d="M1.4043 2.98555C2.395 1.47126 3.84282 0.66617 5.70639 0.5H5.70708H5.70826H5.70945H5.71064H5.71183H5.71302H5.71421H5.7154H5.71659H5.71778H5.71896H5.72015H5.72134H5.72253H5.72372H5.72491H5.7261H5.72729H5.72848H5.72967H5.73085H5.73204H5.73323H5.73442H5.73561H5.7368H5.73799H5.73918H5.74037H5.74156H5.74274H5.74393H5.74512H5.74631H5.7475H5.74869H5.74988H5.75107H5.75226H5.75345H5.75464H5.75583H5.75701H5.7582H5.75939H5.76058H5.76177H5.76296H5.76415H5.76534H5.76653H5.76772H5.76891H5.77009H5.77128H5.77247H5.77366H5.77485H5.77604H5.77723H5.77842H5.77961H5.7808H5.78199H5.78318H5.78437H5.78555H5.78674H5.78793H5.78912H5.79031H5.7915H5.79269H5.79388H5.79507H5.79626H5.79745H5.79864H5.79983H5.80102H5.80221H5.80339H5.80458H5.80577H5.80696H5.80815H5.80934H5.81053H5.81172H5.81291H5.8141H5.81529H5.81648H5.81767H5.81886H5.82005H5.82124H5.82242H5.82361H5.8248H5.82599H5.82718H5.82837H5.82956H5.83075H5.83194H5.83313H5.83432H5.83551H5.8367H5.83789H5.83908H5.84027H5.84146H5.84264H5.84383H5.84502H5.84621H5.8474H5.84859H5.84978H5.85097H5.85216H5.85335H5.85454H5.85573H5.85692H5.85811H5.8593H5.86049H5.86168H5.86287H5.86406H5.86525H5.86644H5.86762H5.86881H5.87H5.87119H5.87238H5.87357H5.87476H5.87595H5.87714H5.87833H5.87952H5.88071H5.8819H5.88309H5.88428H5.88547H5.88666H5.88785H5.88904H5.89023H5.89142H5.89261H5.8938H5.89498H5.89617H5.89736H5.89855H5.89974H5.90093H5.90212H5.90331H5.9045H5.90569H5.90688H5.90807H5.90926H5.91045H5.91164H5.91283H5.91402H5.91521H5.9164H5.91759H5.91878H5.91997H5.92116H5.92235H5.92354H5.92473H5.92591H5.9271H5.92829H5.92948H5.93067H5.93186H5.93305H5.93424H5.93543H5.93662H5.93781H5.939H5.94019H5.94138H5.94257H5.94376H5.94495H5.94614H5.94733H5.94852H5.94971H5.9509H5.95209H5.95328H5.95447H5.95566H5.95685H5.95804H5.95923H5.96041H5.9616H5.96279H5.96398H5.96517H5.96636H5.96755H5.96874H5.96993H5.97112H5.97231H5.9735H5.97469H5.97588H5.97707H5.97826H5.97945H5.98064H5.98183H5.98302H5.98421H5.9854H5.98659H5.98778H5.98897H5.99016H5.99135H5.99254H5.99373H5.99492H5.99611H5.99729H5.99848H5.99967H6.00086H6.00205H6.00324H6.00443H6.00562H6.00681H6.008H6.00919H6.01038H6.01157H6.01276H6.01395H6.01514H6.01633H6.01752H6.01871H6.0199H6.02109H6.02228H6.02347H6.02466H6.02585H6.02704H6.02823H6.02942H6.03061H6.0318H6.03299H6.03417H6.03536H6.03655H6.03774H6.03893H6.04012H6.04131H6.0425H6.04369H6.04488H6.04607H6.04726H6.04845H6.04964H6.05083H6.05202H6.05321H6.0544H6.05559H6.05678H6.05797H6.05916H6.06035H6.06154H6.06273H6.06392H6.06511H6.0663H6.06749H6.06868H6.06986H6.07105H6.07224H6.07343H6.07462H6.07581H6.077H6.07819H6.07938H6.08057H6.08176H6.08295H6.08414H6.08533H6.08652H6.08771H6.0889H6.09009H6.09128H6.09247H6.09366H6.09485H6.09604H6.09723H6.09841H6.0996H6.10079H6.10198H6.10317H6.10436H6.10555H6.10674H6.10793H6.10912H6.11031H6.1115H6.11269H6.11388H6.11507H6.11626H6.11745H6.11864H6.11983H6.12102H6.12221H6.12339H6.12458H6.12577H6.12696H6.12815H6.12934H6.13053H6.13172H6.13291H6.1341H6.13529H6.13648H6.13767H6.13886H6.14005H6.14124H6.14243H6.14362H6.14481H6.14599H6.14718H6.14837H6.14956H6.15075H6.15194H6.15313H6.15432H6.15551H6.1567H6.15789H6.15908H6.16027H6.16146H6.16265H6.16384H6.16503H6.16621H6.1674H6.16859H6.16978H6.17097H6.17216H6.17335H6.17454H6.17573H6.17692H6.17811H6.1793H6.18049H6.18168H6.18287H6.18405H6.18524H6.18643H6.18762H6.18881H6.19H6.19119H6.19238H6.19357H6.19476H6.19595H6.19714H6.19833H6.19952H6.2007H6.20189H6.20308H6.20427H6.20546H6.20665H6.20784H6.20903H6.21022H6.21141H6.2126H6.21379H6.21497H6.21616H6.21735H6.21854H6.21973H6.22092H6.22211H6.2233H6.22449H6.22568H6.22687H6.22806H6.22875C6.25568 0.506616 6.297 0.515415 6.34541 0.519302L6.38543 0.0209057L6.34187 0.519005C9.64359 0.807731 11.8985 3.57827 11.4408 6.73344C11.096 9.10877 9.78481 11.0631 8.25142 13.0076L8.25137 13.0077C7.59459 13.8408 6.86239 14.66 6.04708 15.3289C4.27712 13.4921 2.45091 11.4144 1.3806 9.2254C0.326878 7.06987 0.0834596 5.00465 1.4043 2.98555ZM1.4043 2.98555L0.986181 2.712L1.4043 2.98555ZM2.57398 5.65049C2.566 7.50702 4.1228 9.00737 5.99845 9.0139C7.87319 9.02045 9.42546 7.52575 9.43568 5.66414M2.57398 5.65049L3.07398 5.65264L2.57398 5.65049ZM2.57398 5.65049C2.58194 3.78578 4.12972 2.30048 6.01022 2.30448C7.88851 2.30847 9.44594 3.80575 9.43568 5.66414M9.43568 5.66414L8.93569 5.66138L9.43568 5.66414Z" stroke="#314D3C" stroke-miterlimit="10"/>
</svg>
