<svg width="27" height="23" viewBox="0 0 27 23" fill="none" xmlns="http://www.w3.org/2000/svg">
<g id="Calque 1">
<path id="Vector" d="M12.8468 23C12.1207 22.9724 10.8178 22.9614 9.52036 22.862C8.20084 22.7626 6.88685 22.5859 5.57561 22.4175C4.91862 22.332 4.42449 21.9372 4.10703 21.3851C3.70952 20.7005 3.31477 19.9993 3.03872 19.2623C2.19401 17.0125 1.38243 14.7489 0.615008 12.4715C0.34172 11.6627 0.184371 10.8041 0.0573887 9.95391C-0.0944384 8.93805 0.0132208 7.94151 0.893818 7.24311C1.24716 6.9643 1.6778 6.72966 2.1112 6.61648C2.74611 6.45085 3.41139 6.39288 4.06838 6.32938C4.5073 6.28798 4.95174 6.32938 5.39066 6.3073C5.99521 6.2797 6.12219 6.16651 6.25469 5.60337C6.9531 2.66897 9.49551 0.355678 12.5045 0.0299394C13.2553 -0.0501149 14.0586 0.0354604 14.7929 0.225934C15.6597 0.449534 16.5072 0.808398 17.3077 1.21695C19.0496 2.21625 19.7673 3.56061 19.9633 4.54611C20.0572 4.97674 20.093 5.00987 20.1207 5.50676C20.1234 6.22173 20.1786 6.29902 20.9074 6.31282C21.5478 6.32662 22.191 6.28522 22.8259 6.32938C23.4608 6.37355 24.1068 6.43704 24.7224 6.58611C26.202 6.94497 26.9556 7.89734 26.8673 9.41561C26.8148 10.3321 26.6685 11.2734 26.3759 12.1402C25.476 14.7903 24.485 17.41 23.5271 20.0435C23.4885 20.1457 23.4305 20.2423 23.3918 20.3444C22.8342 21.755 21.846 22.4672 20.2863 22.5997C18.0006 22.793 15.7204 23.0276 12.8468 22.9972V23ZM13.9648 7.61853C10.3623 7.72895 7.25399 7.81177 4.14844 7.92495C3.57978 7.94427 3.00559 8.04365 2.44798 8.17339C1.5591 8.38043 1.26925 8.81383 1.42383 9.71651C1.54529 10.4315 1.68608 11.1547 1.92072 11.8393C2.50871 13.5729 3.12982 15.2955 3.78681 17.0042C4.165 17.9897 4.62877 18.9448 5.0732 19.9027C5.25816 20.303 5.58942 20.5873 6.02281 20.6646C6.65221 20.775 7.28988 20.8358 7.92479 20.8993C8.2809 20.9352 8.45481 20.7392 8.47137 20.3913C8.47689 20.2809 8.48241 20.1705 8.48793 20.0601C8.55695 19.0497 8.85508 18.6964 9.86818 18.6633C12.2919 18.586 14.7184 18.5611 17.1448 18.5197C17.2773 18.5197 17.4098 18.5363 17.5396 18.5611C18.042 18.6633 18.3733 18.9531 18.4699 19.4693C18.5168 19.7288 18.5361 19.9938 18.561 20.2588C18.5969 20.6508 18.8011 20.902 19.1959 20.8689C19.8087 20.8165 20.4271 20.753 21.0206 20.6039C21.2883 20.5349 21.5423 20.2782 21.7273 20.0463C21.9453 19.7757 22.122 19.4528 22.2435 19.127C23.1903 16.6315 24.1372 14.1361 25.0481 11.6295C25.2635 11.0333 25.3656 10.3901 25.4732 9.76068C25.6361 8.7945 25.3435 8.3473 24.369 8.15407C23.6789 8.01605 22.9722 7.95255 22.2683 7.91115C21.4761 7.86698 20.6783 7.91115 19.886 7.87802C17.7494 7.79521 15.6128 7.69031 13.9675 7.61853H13.9648ZM13.4485 6.31834C15.08 6.31834 16.7142 6.32386 18.3457 6.31282C18.688 6.31282 19.3118 6.36251 19.3118 6.05333C19.3118 6.05333 19.287 5.48467 19.0303 5.02919C17.6307 2.24662 15.5106 1.41295 12.4906 1.42399C10.3899 1.5068 8.92133 2.807 7.96896 4.67033C7.81161 4.97674 7.73156 5.33561 7.67635 5.68067C7.6101 6.11131 7.73156 6.24657 8.15391 6.29902C8.34991 6.32386 8.55143 6.31834 8.74742 6.31834C10.3126 6.31834 11.8806 6.31834 13.4458 6.31834H13.4485Z" fill="#314D3C"/>
</g>
</svg>
