<svg id="Calque_1" data-name="Calque 1" xmlns="http://www.w3.org/2000/svg" viewBox="0 0 394.17 56.76"><defs><style>.cls-1{fill:#314d3c;}</style></defs><g id="Calque_2" data-name="Calque 2"><g id="Calque_1-2" data-name="Calque 1-2"><path class="cls-1" d="M35.31,17.08A59.86,59.86,0,0,1,57.5,45.92c1,2.81,1,5.94,1.76,8.81-2.35-1.17-4.89-1.17-7.17-2.54A99.59,99.59,0,0,1,29.31,35.61,99.26,99.26,0,0,1,9.21,11.14,75.06,75.06,0,0,1,41.84,4,22.84,22.84,0,0,1,65.66,25.82h0a59,59,0,0,1-1.18,22.45c-3.06-4.7-5.41-9.59-8.41-14.29A45.72,45.72,0,0,0,36.94,17.14a7.25,7.25,0,0,0-2.34-.58h-.79Z" transform="translate(-9.21 -1.3)"/><path class="cls-1" d="M151.15,1.35l-23,25,23.17,31.71H140.9a4.56,4.56,0,0,1-2.28-1.5C133.2,49.71,128,42.79,122.7,35.87l-1.83-2.35c-2.61,2.81-5.22,5.49-7.64,8.23a4.85,4.85,0,0,0-.52,2.54V58h-9.53V1.35h9.53V28.11l.72.39c.85-1,1.63-2,2.54-2.87,7.18-7.64,14.3-15.21,21.54-22.71a4.86,4.86,0,0,1,3.2-1.57Z" transform="translate(-9.21 -1.3)"/><path class="cls-1" d="M248.58,41.55V57.93h-9.53V1.35c10.44.59,21-1.24,31.33,1.57a16.25,16.25,0,0,1,13.05,15.66,31.09,31.09,0,0,1,0,7.83,17.43,17.43,0,0,1-17.69,14.75c-4.5,0-9.07,0-13.57.39Zm0-8.87h14.16c9.86,0,11.36-7.71,10.38-14.56a7.7,7.7,0,0,0-5.55-6.52,58.06,58.06,0,0,0-19-1.37Z" transform="translate(-9.21 -1.3)"/><path class="cls-1" d="M330.74,48.92h26.11v9H321.34V1.35h9.4Z" transform="translate(-9.21 -1.3)"/><path class="cls-1" d="M196.44,57.93H187V1.35h9.46Z" transform="translate(-9.21 -1.3)"/><path class="cls-1" d="M403.38,57.93h-9.14V1.35h9.14Z" transform="translate(-9.21 -1.3)"/></g></g></svg>